<?xml version="1.0" encoding="UTF-8" standalone="no"?>
<!-- Created with Inkscape (http://www.inkscape.org/) -->

<svg
   xmlns:dc="http://purl.org/dc/elements/1.1/"
   xmlns:cc="http://creativecommons.org/ns#"
   xmlns:rdf="http://www.w3.org/1999/02/22-rdf-syntax-ns#"
   xmlns:svg="http://www.w3.org/2000/svg"
   xmlns="http://www.w3.org/2000/svg"
   xmlns:inkscape="http://www.inkscape.org/namespaces/inkscape"
   version="1.1"
   width="1000"
   height="1000"
   id="svg2"
   xml:space="preserve"><metadata
     id="metadata8"><rdf:RDF><cc:Work
         rdf:about=""><dc:format>image/svg+xml</dc:format><dc:type
           rdf:resource="http://purl.org/dc/dcmitype/StillImage" /></cc:Work></rdf:RDF></metadata><defs
     id="defs6"><clipPath
       id="clipPath16"><path
         d="M 0,800 800,800 800,0 0,0 0,800 z"
         inkscape:connector-curvature="0"
         id="path18" /></clipPath></defs><g
     transform="matrix(1.25,0,0,-1.25,0,1000)"
     id="g10"><g
       id="g12"><g
         clip-path="url(#clipPath16)"
         id="g14"><g
           transform="translate(554.2109,622.3716)"
           id="g20"><path
             d="M 0,0 C 0,26.696 -68.878,48.352 -153.831,48.352 -238.802,48.352 -307.68,26.696 -307.68,0 c 0,-26.728 68.878,-48.379 153.849,-48.379 C -68.878,-48.379 0,-26.728 0,0"
             inkscape:connector-curvature="0"
             id="path22"
             style="fill:#ffffff;fill-opacity:1;fill-rule:nonzero;stroke:none" /></g><g
           transform="translate(555.1084,229.7168)"
           id="g24"><path
             d="m 0,0 c 3.273,43.161 -34.453,82.508 -34.453,82.508 l -28.387,31.138 -40.998,44.281 c -16.41,15.848 3.273,31.138 3.273,31.138 l 24.053,26.25 50.826,54.104 c 28.959,30.59 24.589,72.67 24.589,72.67 l 0,52.735 -154.021,-23.444 -153.994,23.444 0,-52.735 c 0,0 -4.37,-42.08 24.579,-72.67 l 50.836,-54.104 24.053,-26.25 c 0,0 19.674,-15.29 3.264,-31.138 l -40.989,-44.281 -28.424,-31.138 c 0,0 -37.689,-39.347 -34.425,-82.508 l 0,-35.535 c 0,0 -4.37,-36.611 47,-50.824 0,0 42.096,-16.944 103.839,-13.658 l 4.261,0.182 4.279,-0.182 C -89.087,-103.303 -47,-86.359 -47,-86.359 4.37,-72.146 0,-35.535 0,-35.535 L 0,0 z"
             inkscape:connector-curvature="0"
             id="path26"
             style="fill:#ffffff;fill-opacity:1;fill-rule:nonzero;stroke:none" /></g><g
           transform="translate(529.6221,621.2729)"
           id="g28"><path
             d="m 0,0 c 0,-17.961 -58.469,-32.521 -130.62,-32.521 -72.124,0 -130.593,14.56 -130.593,32.521 0,17.96 58.469,32.503 130.593,32.503 C -58.469,32.503 0,17.96 0,0"
             inkscape:connector-curvature="0"
             id="path30"
             style="fill:#404040;fill-opacity:1;fill-rule:nonzero;stroke:none" /></g><g
           transform="translate(539.4326,208.4023)"
           id="g32"><path
             d="m 0,0 0,25.672 c 0,0 0,38.807 -26.528,58.487 l -59.177,63.925 -20.473,25.69 c 0,0 -12.711,16.942 -2.193,31.152 0,0 14.343,22.949 53.057,62.291 l 31.523,34.439 c 0,0 22.132,19.67 23.228,49.72 L 0,394.558 c 0,0 -35.949,-30.606 -138.799,-30.606 l 0,-0.546 c -102.849,0.013 -138.799,30.599 -138.799,30.599 l 0.573,-43.161 c 1.096,-30.057 23.227,-49.734 23.227,-49.734 l 31.525,-34.425 c 38.705,-39.355 53.084,-62.312 53.084,-62.312 10.517,-14.209 -2.231,-31.152 -2.231,-31.152 l -20.463,-25.683 -59.149,-63.933 C -277.598,63.93 -277.598,25.118 -277.598,25.118 l 0,-25.685 c -1.096,-44.263 30.428,-47.529 30.428,-47.529 48.125,-19.13 108.399,-15.843 108.399,-15.843 l 0,0.533 c 0.543,-0.028 60.482,-3.19 108.353,15.843 0,0 31.523,3.295 30.418,47.563"
             inkscape:connector-curvature="0"
             id="path34"
             style="fill:#404040;fill-opacity:1;fill-rule:nonzero;stroke:none" /></g><g
           transform="translate(467.3174,237.9082)"
           id="g36"><path
             d="M 0,0 C 0,0 -53.002,15.844 -65.016,49.721 -77.056,15.844 -130.058,0 -130.058,0 c -47.001,-19.13 -56.302,-47.553 -56.302,-47.553 51.397,-25.133 121.344,-21.31 121.344,-21.31 0,0 69.949,-3.823 121.319,21.31 0,0 -9.302,28.423 -56.303,47.553 m -66.112,144.023 0,-12.314 c 0.027,2.817 0.135,5.523 0.281,8.174 0.136,-2.651 0.218,-5.357 0.254,-8.174 l 0,12.314 c 3.663,46.844 24.579,63.638 24.579,63.638 l 76.521,85.794 c -46.801,-31.872 -95.498,-32.314 -101.1,-32.252 l 0,0.022 c 0,0 -0.118,0 -0.254,-0.014 -0.173,0.014 -0.281,0.014 -0.281,0.014 l 0,-0.022 c -5.613,-0.062 -54.308,0.38 -101.11,32.252 L -90.7,207.661 c 0,0 20.916,-16.794 24.588,-63.638"
             inkscape:connector-curvature="0"
             id="path38"
             style="fill:#ffffff;fill-opacity:1;fill-rule:nonzero;stroke:none" /></g></g></g></g></svg>